HIERARCHY
ROOT Hips
{
    OFFSET   0.000000   0.000000   0.000000
    CHANNELS 6 Xposition Yposition Zposition Zrotation Xrotation Yrotation
    JOINT Chest
    {
        OFFSET   0.000000   8.007230   0.000000
        CHANNELS 3 Zrotation Xrotation Yrotation
        JOINT Chest2
        {
            OFFSET   0.000000  22.077100   0.000000
            CHANNELS 3 Zrotation Xrotation Yrotation
            JOINT Neck
            {
                OFFSET   0.000000  23.255100   0.000000
                CHANNELS 3 Zrotation Xrotation Yrotation
                JOINT Head
                {
                    OFFSET   0.000000  14.370100   1.956600
                    CHANNELS 3 Zrotation Xrotation Yrotation
                    End Site
                    {
                        OFFSET   0.000000  19.566000   0.000000
                    }
                }
            }
            JOINT LeftCollar
            {
                OFFSET   3.911900  19.017000  -0.467063
                CHANNELS 3 Zrotation Xrotation Yrotation
                JOINT LeftShoulder
                {
                    OFFSET  10.383700   0.000000   0.000000
                    CHANNELS 3 Zrotation Xrotation Yrotation
                    JOINT LeftElbow
                    {
                        OFFSET  26.662100   0.001193   0.000980
                        CHANNELS 3 Zrotation Xrotation Yrotation
                        JOINT LeftWrist
                        {
                            OFFSET  28.869000  -0.000059  -0.000082
                            CHANNELS 3 Zrotation Xrotation Yrotation
                            JOINT LeftFinger0
                            {
                                OFFSET   2.044650  -2.323450   3.252850
                                CHANNELS 3 Zrotation Xrotation Yrotation
                                JOINT LeftFinger01
                                {
                                    OFFSET   3.088130   0.000000   0.000000
                                    CHANNELS 3 Zrotation Xrotation Yrotation
                                    JOINT LeftFinger02
                                    {
                                        OFFSET   2.639460   0.000000   0.000000
                                        CHANNELS 3 Zrotation Xrotation Yrotation
                                        End Site
                                        {
                                            OFFSET   2.582190   0.000000   0.000000
                                        }
                                    }
                                }
                            }
                            JOINT LeftFinger1
                            {
                                OFFSET   8.364480   0.000000   3.252850
                                CHANNELS 3 Zrotation Xrotation Yrotation
                                JOINT LeftFinger11
                                {
                                    OFFSET   4.646930   0.000000   0.000000
                                    CHANNELS 3 Zrotation Xrotation Yrotation
                                    JOINT LeftFinger12
                                    {
                                        OFFSET   2.323470   0.000000   0.000000
                                        CHANNELS 3 Zrotation Xrotation Yrotation
                                        End Site
                                        {
                                            OFFSET   2.273050   0.000000   0.000000
                                        }
                                    }
                                }
                            }
                            JOINT LeftFinger2
                            {
                                OFFSET   8.364490   0.000016   1.078090
                                CHANNELS 3 Zrotation Xrotation Yrotation
                                JOINT LeftFinger21
                                {
                                    OFFSET   5.111610   0.000000   0.000000
                                    CHANNELS 3 Zrotation Xrotation Yrotation
                                    JOINT LeftFinger22
                                    {
                                        OFFSET   2.788150   0.000016   0.000000
                                        CHANNELS 3 Zrotation Xrotation Yrotation
                                        End Site
                                        {
                                            OFFSET   2.727660   0.000000   0.000000
                                        }
                                    }
                                }
                            }
                            JOINT LeftFinger3
                            {
                                OFFSET   7.899780   0.000015  -1.078090
                                CHANNELS 3 Zrotation Xrotation Yrotation
                                JOINT LeftFinger31
                                {
                                    OFFSET   4.646930   0.000000   0.000000
                                    CHANNELS 3 Zrotation Xrotation Yrotation
                                    JOINT LeftFinger32
                                    {
                                        OFFSET   2.323470   0.000000   0.000000
                                        CHANNELS 3 Zrotation Xrotation Yrotation
                                        End Site
                                        {
                                            OFFSET   2.273050   0.000000   0.000000
                                        }
                                    }
                                }
                            }
                            JOINT LeftFinger4
                            {
                                OFFSET   7.435090   0.000000  -3.252850
                                CHANNELS 3 Zrotation Xrotation Yrotation
                                JOINT LeftFinger41
                                {
                                    OFFSET   3.717550   0.000000   0.000000
                                    CHANNELS 3 Zrotation Xrotation Yrotation
                                    JOINT LeftFinger42
                                    {
                                        OFFSET   1.858770   0.000000   0.000000
                                        CHANNELS 3 Zrotation Xrotation Yrotation
                                        End Site
                                        {
                                            OFFSET   1.818440   0.000000   0.000000
                                        }
                                    }
                                }
                            }
                        }
                    }
                }
            }
            JOINT RightCollar
            {
                OFFSET  -3.911910  19.017000  -0.467062
                CHANNELS 3 Zrotation Xrotation Yrotation
                JOINT RightShoulder
                {
                    OFFSET -10.383700   0.000014   0.000000
                    CHANNELS 3 Zrotation Xrotation Yrotation
                    JOINT RightElbow
                    {
                        OFFSET -26.662100   0.001225   0.001091
                        CHANNELS 3 Zrotation Xrotation Yrotation
                        JOINT RightWrist
                        {
                            OFFSET -28.869000  -0.000020  -0.000085
                            CHANNELS 3 Zrotation Xrotation Yrotation
                            JOINT RightFinger0
                            {
                                OFFSET  -2.044650  -2.323490   3.252850
                                CHANNELS 3 Zrotation Xrotation Yrotation
                                JOINT RightFinger01
                                {
                                    OFFSET  -3.088130   0.000000   0.000000
                                    CHANNELS 3 Zrotation Xrotation Yrotation
                                    JOINT RightFinger02
                                    {
                                        OFFSET  -2.639460   0.000000   0.000000
                                        CHANNELS 3 Zrotation Xrotation Yrotation
                                        End Site
                                        {
                                            OFFSET  -2.582190   0.000000   0.000000
                                        }
                                    }
                                }
                            }
                            JOINT RightFinger1
                            {
                                OFFSET  -8.364480   0.000000   3.252850
                                CHANNELS 3 Zrotation Xrotation Yrotation
                                JOINT RightFinger11
                                {
                                    OFFSET  -4.646930   0.000000   0.000000
                                    CHANNELS 3 Zrotation Xrotation Yrotation
                                    JOINT RightFinger12
                                    {
                                        OFFSET  -2.323470   0.000000   0.000000
                                        CHANNELS 3 Zrotation Xrotation Yrotation
                                        End Site
                                        {
                                            OFFSET  -2.273050   0.000000   0.000000
                                        }
                                    }
                                }
                            }
                            JOINT RightFinger2
                            {
                                OFFSET  -8.364480   0.000000   1.078090
                                CHANNELS 3 Zrotation Xrotation Yrotation
                                JOINT RightFinger21
                                {
                                    OFFSET  -5.111620   0.000000   0.000000
                                    CHANNELS 3 Zrotation Xrotation Yrotation
                                    JOINT RightFinger22
                                    {
                                        OFFSET  -2.788160   0.000000   0.000000
                                        CHANNELS 3 Zrotation Xrotation Yrotation
                                        End Site
                                        {
                                            OFFSET  -2.727660   0.000000   0.000000
                                        }
                                    }
                                }
                            }
                            JOINT RightFinger3
                            {
                                OFFSET  -7.899780   0.000000  -1.078090
                                CHANNELS 3 Zrotation Xrotation Yrotation
                                JOINT RightFinger31
                                {
                                    OFFSET  -4.646930   0.000000   0.000000
                                    CHANNELS 3 Zrotation Xrotation Yrotation
                                    JOINT RightFinger32
                                    {
                                        OFFSET  -2.323470   0.000000   0.000000
                                        CHANNELS 3 Zrotation Xrotation Yrotation
                                        End Site
                                        {
                                            OFFSET  -2.273050   0.000000   0.000000
                                        }
                                    }
                                }
                            }
                            JOINT RightFinger4
                            {
                                OFFSET  -7.435090   0.000000  -3.252850
                                CHANNELS 3 Zrotation Xrotation Yrotation
                                JOINT RightFinger41
                                {
                                    OFFSET  -3.717550   0.000000   0.000000
                                    CHANNELS 3 Zrotation Xrotation Yrotation
                                    JOINT RightFinger42
                                    {
                                        OFFSET  -1.858760   0.000000   0.000000
                                        CHANNELS 3 Zrotation Xrotation Yrotation
                                        End Site
                                        {
                                            OFFSET  -1.818440   0.000000   0.000000
                                        }
                                    }
                                }
                            }
                        }
                    }
                }
            }
        }
    }
    JOINT LeftHip
    {
        OFFSET   9.783030   0.000000   0.000000
        CHANNELS 3 Zrotation Xrotation Yrotation
        JOINT LeftKnee
        {
            OFFSET   0.000063 -41.789100   0.000608
            CHANNELS 3 Zrotation Xrotation Yrotation
            JOINT LeftAnkle
            {
                OFFSET   0.000048 -41.133200  -0.000184
                CHANNELS 3 Zrotation Xrotation Yrotation
                JOINT LeftToe
                {
                    OFFSET   0.000000  -6.358960  14.674500
                    CHANNELS 3 Zrotation Xrotation Yrotation
                    End Site
                    {
                        OFFSET   0.000000   0.000000   3.913200
                    }
                }
            }
        }
    }
    JOINT RightHip
    {
        OFFSET  -9.783030   0.000000   0.000000
        CHANNELS 3 Zrotation Xrotation Yrotation
        JOINT RightKnee
        {
            OFFSET   0.000071 -41.789100   0.001239
            CHANNELS 3 Zrotation Xrotation Yrotation
            JOINT RightAnkle
            {
                OFFSET   0.000037 -41.133200  -0.000166
                CHANNELS 3 Zrotation Xrotation Yrotation
                JOINT RightToe
                {
                    OFFSET   0.000000  -6.358960  14.674500
                    CHANNELS 3 Zrotation Xrotation Yrotation
                    End Site
                    {
                        OFFSET   0.000000   0.000000   3.913200
                    }
                }
            }
        }
    }
}
MOTION
Frames: 5
Frame Time:   0.016667
 -1.174480  89.594500  -3.332250  -3.119000  -7.502250  -4.068890   1.084010   3.828600  -0.114282   2.183030   7.654360  -0.302355   0.074895  -0.674110   0.008537   0.110768  -1.367220   1.400670  -6.533230  -1.972060   0.345678 -73.413600  18.370400   2.146010  -2.471470  -8.855180 -14.723200  15.759200 -14.459100   9.213310  44.169200  37.380600 -67.176400 -28.574500  -0.000435   0.010204  -9.287270  -0.008425   0.005918 -28.574700   6.928520 -12.504200 -24.000300  -0.006881   0.007160 -16.800200  -0.001333   0.004227 -27.844300   0.215832  -0.416497 -31.025800  -0.008409  -0.006513 -20.669700  -0.001847   0.009755 -27.276400   0.211777  -0.418652 -28.162600  -0.004373  -0.004485 -18.756300   0.002377  -0.002454 -27.006200   0.209752  -0.419645 -40.510400  -0.001216  -0.003983 -26.979900  -0.000861   0.001653   9.982520  -0.543258   8.447620  68.942900  12.198000  -8.544930   0.294707 -10.692000  12.897000 -15.080300  -3.949010  -1.662750 -42.964600  36.008400  70.645500  27.082800   0.014704  -0.014803   8.541430  -0.004144  -0.007831  30.182000   7.839900  13.201400  25.437500   0.003791  -0.003346  17.806200  -0.009682  -0.005090  27.919200   3.541340   6.665900  32.879300  -0.006465  -0.002639  21.902900  -0.002191  -0.001530  27.329500   2.629360   5.070340  28.974500   0.005557   0.001004  19.297000  -0.000447  -0.002499  34.429300   0.380710   0.539122  51.647700   0.002224   0.003469  34.396800   0.002551   0.001034   2.555590   8.964920   2.689570   1.276780   0.052541   8.465650  -1.854020  -2.461360   2.499760  -0.000000   0.000000  -0.000000   4.255800   6.233660  -6.781750  -2.370560   4.726910  -7.969690   1.051240  -4.678330   1.864750  -0.000000   0.000000   0.000000
 -1.183980  89.594500  -3.332250  -3.129450  -7.544200  -4.081810   1.095440   3.843210  -0.112753   2.205950   7.683570  -0.300346   0.067316  -0.690036   0.008533   0.103367  -1.399460   1.414440  -6.529960  -1.989870   0.371230 -73.467200  18.495900   2.043160  -2.428150  -8.818640 -14.703200  15.777000 -14.435300   9.228840  44.181100  37.400100 -67.169800 -28.586200  -0.000444   0.010195  -9.293110  -0.008421   0.005913 -28.578700   6.931190 -12.500600 -24.003900  -0.006878   0.007160 -16.802700  -0.001334   0.004226 -27.844000   0.215831  -0.415102 -31.027600  -0.008408  -0.006517 -20.669700  -0.001850   0.009764 -27.276100   0.211777  -0.417253 -28.162600  -0.004370  -0.004490 -18.756300   0.002377  -0.002469 -27.000400   0.209752  -0.418266 -40.501600  -0.001211  -0.003987 -26.974100  -0.000865   0.001638   9.997300  -0.569223   8.460150  68.906400  12.271600  -8.528830   0.293829 -10.692900  12.863000 -15.085600  -3.925420  -1.669980 -42.965200  36.034900  70.678400  27.105000   0.014699  -0.014810   8.552530  -0.004145  -0.007826  30.185200   7.833950  13.189000  25.437400   0.003788  -0.003342  17.806100  -0.009682  -0.005087  27.919500   3.541150   6.659240  32.883300  -0.006463  -0.002640  21.902900  -0.002189  -0.001524  27.329400   2.628900   5.070340  28.974500   0.005559   0.001008  19.297000  -0.000445  -0.002494  34.429300   0.380647   0.539121  51.647600   0.002227   0.003476  34.396800   0.002556   0.001036   2.565300   9.020720   2.698180   1.281770   0.029248   8.473380  -1.856330  -2.449970   2.493280   0.000000   0.000000   0.000000   4.268810   6.262460  -6.779300  -2.366340   4.756730  -7.973160   1.059050  -4.702340   1.880990   0.000000   0.000000   0.000000
 -1.199980  89.594500  -3.332270  -3.146960  -7.616490  -4.102290   1.114870   3.868380  -0.108880   2.244830   7.733920  -0.294391   0.056832  -0.714565   0.008520   0.093321  -1.449040   1.439830  -6.521270  -2.021610   0.414812 -73.573000  18.724000   1.862020  -2.351670  -8.766120 -14.658300  15.824000 -14.395700   9.263420  44.202500  37.439000 -67.156900 -28.612900  -0.000467   0.010181  -9.306450  -0.008417   0.005896 -28.594000   6.934090 -12.488600 -24.016500  -0.006867   0.007160 -16.811500  -0.001335   0.004221 -27.843700   0.215830  -0.408607 -31.035600  -0.008403  -0.006526 -20.669700  -0.001857   0.009785 -27.275800   0.211775  -0.410726 -28.162600  -0.004361  -0.004504 -18.756300   0.002376  -0.002509 -26.994500   0.209751  -0.411755 -40.492900  -0.001201  -0.003998 -26.968300  -0.000874   0.001600  10.019200  -0.614792   8.472730  68.842000  12.396900  -8.467140   0.294463 -10.692700  12.779200 -15.097600  -3.860100  -1.691600 -42.964200  36.073600  70.724000  27.141300   0.014695  -0.014819   8.570700  -0.004150  -0.007819  30.190600   7.823340  13.168300  25.437200   0.003779  -0.003332  17.806000  -0.009683  -0.005082  27.919800   3.540960   6.652580  32.887300  -0.006455  -0.002642  21.902900  -0.002185  -0.001508  27.329400   2.628430   5.070340  28.974500   0.005567   0.001022  19.297000  -0.000440  -0.002481  34.429300   0.380557   0.539120  51.646800   0.002237   0.003494  34.396800   0.002569   0.001041   2.583210   9.112950   2.711100   1.287080   0.003916   8.485710  -1.861230  -2.438590   2.482930   0.000000   0.000000  -0.000000   4.290090   6.318420  -6.770050  -2.360530   4.794660  -7.981860   1.067680  -4.736040   1.903000   0.000000   0.000000   0.000000
 -1.213350  89.590800  -3.332330  -3.161310  -7.679240  -4.115630   1.131250   3.889860  -0.102802   2.277410   7.776940  -0.283759   0.052785  -0.730055   0.008501   0.089694  -1.480150   1.463660  -6.507410  -2.049140   0.452041 -73.692600  18.932700   1.698070  -2.281540  -8.737890 -14.601300  15.899000 -14.362300   9.307200  44.217300  37.482800 -67.136300 -28.646600  -0.000499   0.010169  -9.323310  -0.008417   0.005862 -28.622800   6.932260 -12.469400 -24.039000  -0.006847   0.007161 -16.827300  -0.001345   0.004212 -27.845400   0.210501  -0.395944 -31.050100  -0.008396  -0.006539 -20.677300  -0.001871   0.009818 -27.277400   0.206542  -0.397995 -28.170100  -0.004348  -0.004524 -18.761200   0.002376  -0.002570 -26.995700   0.204567  -0.399009 -40.494600  -0.001188  -0.004017 -26.969400  -0.000888   0.001543  10.030400  -0.655422   8.459790  68.781500  12.494600  -8.352270   0.300022 -10.672300  12.658400 -15.110400  -3.751060  -1.726820 -42.961500  36.094400  70.742800  27.169000   0.014723  -0.014821   8.584530  -0.004162  -0.007815  30.192100   7.811940  13.149900  25.437100   0.003763  -0.003318  17.805900  -0.009682  -0.005076  27.919500   3.541750   6.653110  32.876100  -0.006441  -0.002642  21.895500  -0.002176  -0.001485  27.329000   2.630340   5.074150  28.964600   0.005581   0.001046  19.290400  -0.000432  -0.002460  34.419400   0.380518   0.542574  51.631700   0.002253   0.003522  34.386900   0.002589   0.001050   2.601550   9.187680   2.718660   1.286590   0.001536   8.494460  -1.867280  -2.439390   2.473880   0.000000   0.000000   0.000000   4.308650   6.380930  -6.750110  -2.356560   4.803000  -7.998520   1.063300  -4.748560   1.909870  -0.000000   0.000000   0.000000
 -1.226350  89.585600  -3.332420  -3.175350  -7.745010  -4.129410   1.148000   3.913070  -0.095518   2.310670   7.823440  -0.270782   0.051646  -0.742927   0.008473   0.089507  -1.506060   1.493610  -6.490000  -2.083490   0.489916 -73.833100  19.190800   1.520210  -2.206100  -8.727390 -14.523900  15.991700 -14.332800   9.365750  44.245100  37.536300 -67.125700 -28.694400  -0.000540   0.010156  -9.347220  -0.008418   0.005820 -28.667300   6.925220 -12.436600 -24.073100  -0.006819   0.007161 -16.851200  -0.001361   0.004200 -27.849900   0.198483  -0.375682 -31.076000  -0.008386  -0.006556 -20.696600  -0.001888   0.009859 -27.282300   0.194748  -0.377623 -28.191800  -0.004331  -0.004549 -18.775700   0.002377  -0.002645 -27.003500   0.192905  -0.378586 -40.506100  -0.001170  -0.004039 -26.977100  -0.000905   0.001470  10.039500  -0.700147   8.432400  68.719200  12.611500  -8.179910   0.300900 -10.656700  12.496700 -15.133700  -3.615070  -1.777750 -42.951500  36.106800  70.746000  27.195900   0.014767  -0.014822   8.597990  -0.004177  -0.007811  30.192700   7.802680  13.134500  25.437100   0.003743  -0.003298  17.805900  -0.009681  -0.005067  27.918700   3.545740   6.656820  32.858800  -0.006424  -0.002643  21.883900  -0.002164  -0.001453  27.327600   2.637710   5.088650  28.949800   0.005598   0.001079  19.280600  -0.000422  -0.002432  34.401900   0.380504   0.548753  51.605600   0.002275   0.003560  34.369300   0.002616   0.001062   2.621320   9.256370   2.724030   1.285800   0.001196   8.502360  -1.875570  -2.444860   2.468710  -0.000000   0.000000  -0.000000   4.321890   6.450840  -6.727390  -2.350840   4.805220  -8.011690   1.058220  -4.755870   1.910980   0.000000   0.000000   0.000000
